<?xml version="1.0" encoding="UTF-8" standalone="no"?>
<!-- Generator: Adobe Illustrator 16.0.0, SVG Export Plug-In . SVG Version: 6.00 Build 0)  -->

<svg
   xmlns:dc="http://purl.org/dc/elements/1.1/"
   xmlns:cc="http://creativecommons.org/ns#"
   xmlns:rdf="http://www.w3.org/1999/02/22-rdf-syntax-ns#"
   xmlns:svg="http://www.w3.org/2000/svg"
   xmlns="http://www.w3.org/2000/svg"
   xmlns:sodipodi="http://sodipodi.sourceforge.net/DTD/sodipodi-0.dtd"
   xmlns:inkscape="http://www.inkscape.org/namespaces/inkscape"
   version="1.1"
   id="Layer_1"
   x="0px"
   y="0px"
   width="100"
   height="100"
   viewBox="0 0 99.999998 100"
   enable-background="new 0 0 266.893 266.895"
   xml:space="preserve"
   inkscape:version="0.91 r13725"
   sodipodi:docname="facebook.svg"><metadata
     id="metadata9"><rdf:RDF><cc:Work
         rdf:about=""><dc:format>image/svg+xml</dc:format><dc:type
           rdf:resource="http://purl.org/dc/dcmitype/StillImage" /><dc:title></dc:title></cc:Work></rdf:RDF></metadata><defs
     id="defs7" /><sodipodi:namedview
     pagecolor="#ffffff"
     bordercolor="#666666"
     borderopacity="1"
     objecttolerance="10"
     gridtolerance="10"
     guidetolerance="10"
     inkscape:pageopacity="0"
     inkscape:pageshadow="2"
     inkscape:window-width="1311"
     inkscape:window-height="771"
     id="namedview5"
     showgrid="false"
     inkscape:zoom="0.8842429"
     inkscape:cx="133.4465"
     inkscape:cy="133.44749"
     inkscape:window-x="20"
     inkscape:window-y="43"
     inkscape:window-maximized="0"
     inkscape:current-layer="Layer_1" /><g
     id="g4146"
     transform="matrix(0.31041802,0,0,0.31041802,8.5758017,60.382703)"><path
       style="fill:#3c5a99"
       inkscape:connector-curvature="0"
       d="m 248.082,95.412011 c 7.854,0 14.223,-6.369 14.223,-14.225 l 0,-229.270001 c 0,-7.857 -6.368,-14.224 -14.223,-14.224 l -229.27,0 c -7.857,0 -14.224,6.367 -14.224,14.224 l 0,229.270001 c 0,7.855 6.366,14.225 14.224,14.225 l 229.27,0 z"
       id="Blue_1_" /><path
       style="fill:#ffffff"
       inkscape:connector-curvature="0"
       d="m 182.409,95.412011 0,-99.803 33.499,0 5.016,-38.895 -38.515,0 0,-24.832 c 0,-11.261 3.127,-18.935 19.275,-18.935 l 20.596,-0.009 0,-34.788001 c -3.562,-0.474 -15.788,-1.533 -30.012,-1.533 -29.695,0 -50.025,18.126 -50.025,51.413001 l 0,28.684 -33.585,0 0,38.895 33.585,0 0,99.803 40.166,0 z"
       id="f" /></g></svg>