<?xml version="1.0" encoding="UTF-8" standalone="no"?>
<!-- Created with Inkscape (http://www.inkscape.org/) -->

<svg
   xmlns:dc="http://purl.org/dc/elements/1.1/"
   xmlns:cc="http://creativecommons.org/ns#"
   xmlns:rdf="http://www.w3.org/1999/02/22-rdf-syntax-ns#"
   xmlns:svg="http://www.w3.org/2000/svg"
   xmlns="http://www.w3.org/2000/svg"
   xmlns:sodipodi="http://sodipodi.sourceforge.net/DTD/sodipodi-0.dtd"
   xmlns:inkscape="http://www.inkscape.org/namespaces/inkscape"
   id="svg2"
   version="1.1"
   inkscape:version="0.91 r13725"
   width="100"
   height="100"
   viewBox="0 0 100 100"
   sodipodi:docname="freenode.svg">
  <metadata
     id="metadata8">
    <rdf:RDF>
      <cc:Work
         rdf:about="">
        <dc:format>image/svg+xml</dc:format>
        <dc:type
           rdf:resource="http://purl.org/dc/dcmitype/StillImage" />
        <dc:title></dc:title>
      </cc:Work>
    </rdf:RDF>
  </metadata>
  <defs
     id="defs6" />
  <sodipodi:namedview
     pagecolor="#ffffff"
     bordercolor="#666666"
     borderopacity="1"
     objecttolerance="10"
     gridtolerance="10"
     guidetolerance="10"
     inkscape:pageopacity="0"
     inkscape:pageshadow="2"
     inkscape:window-width="1188"
     inkscape:window-height="758"
     id="namedview4"
     showgrid="false"
     inkscape:zoom="0.96875"
     inkscape:cx="82.012872"
     inkscape:cy="103.94422"
     inkscape:window-x="20"
     inkscape:window-y="43"
     inkscape:window-maximized="0"
     inkscape:current-layer="svg2" />
  <path
     style="fill:#333333;fill-opacity:1"
     d="m 79.029247,69.890384 c -2.492733,-0.316185 -4.704051,-1.252608 -6.49956,-2.752355 -2.629238,-2.196137 -4.290838,-5.30895 -4.864968,-9.113954 -0.154424,-1.023388 -0.154787,-3.673344 -6.26e-4,-4.725075 0.619728,-4.228799 2.781421,-7.829495 5.954816,-9.91885 2.372879,-1.562296 5.429909,-2.274229 8.511239,-1.982131 3.287918,0.311681 5.535295,1.11281 6.840524,2.438461 0.711741,0.722873 1.030534,1.586894 1.026481,2.782037 -0.0022,0.639915 -0.02716,0.825792 -0.16956,1.260796 -0.200822,0.613473 -0.547829,1.152177 -1.02042,1.584092 -0.648199,0.592421 -1.213879,0.781538 -2.204845,0.737118 -0.616287,-0.02763 -0.727884,-0.05432 -1.631039,-0.390226 -2.138026,-0.795178 -2.526002,-0.876091 -3.981471,-0.830347 -1.470768,0.04622 -2.342881,0.327135 -3.305318,1.064651 -0.903775,0.692562 -1.711057,1.929459 -2.029887,3.110135 -0.619584,2.294381 -0.298859,5.047944 0.794103,6.817682 0.15934,0.258009 0.502576,0.689559 0.762749,0.959 1.060831,1.098638 2.305002,1.551916 4.003418,1.458537 1.297461,-0.07134 2.113988,-0.264107 4.162965,-0.982824 0.982134,-0.344501 1.181748,-0.394468 1.563688,-0.391416 1.619819,0.01295 3.065255,1.692565 3.058438,3.553948 -0.0049,1.35376 -0.683345,2.443264 -2.11711,3.400144 -1.392621,0.92942 -2.982705,1.491136 -5.268855,1.861287 -0.827579,0.133994 -2.745674,0.165719 -3.584737,0.05929 z M 14.824192,69.392002 c -0.667292,-0.164304 -1.133758,-0.499367 -1.388877,-0.997631 -0.244418,-0.477365 -0.258204,-1.061977 -0.05776,-2.449674 0.210664,-1.458497 0.914988,-6.745238 0.914988,-6.868019 0,-0.08069 -0.198096,-0.09749 -1.360409,-0.11537 -1.341184,-0.02063 -1.365413,-0.02338 -1.714462,-0.194793 -1.6768234,-0.823454 -1.6044144,-3.747109 0.109689,-4.428907 0.348388,-0.138575 0.462824,-0.148218 2.006605,-0.169096 l 1.637146,-0.02214 0.03605,-0.229991 c 0.01983,-0.126495 0.191542,-1.412139 0.381589,-2.856987 0.190049,-1.444848 0.360512,-2.70153 0.378808,-2.792626 l 0.03327,-0.165629 -1.301431,-0.02625 c -1.153284,-0.02327 -1.341156,-0.04185 -1.650405,-0.163246 -0.917138,-0.360027 -1.432216,-1.305608 -1.356551,-2.490356 0.06108,-0.956359 0.494633,-1.650089 1.248898,-1.998368 l 0.39408,-0.181964 1.694921,-0.02003 1.694921,-0.02003 0.202669,-1.481107 c 0.111468,-0.814609 0.354693,-2.59289 0.5405,-3.951735 0.386812,-2.828831 0.457817,-3.19934 0.719719,-3.755559 0.429721,-0.912626 1.131652,-1.30843 2.323287,-1.31005 0.752739,-10e-4 1.266087,0.171255 1.704651,0.572078 0.471391,0.430825 0.61927,0.800325 0.609337,1.522522 -0.0059,0.426321 -0.791353,6.508628 -1.056146,8.178092 l -0.0372,0.234553 2.290979,0 c 1.260039,0 2.29098,-0.01107 2.29098,-0.02459 0,-0.121795 1.078588,-8.023876 1.126687,-8.254474 0.09527,-0.456717 0.366321,-1.102141 0.584058,-1.39073 0.420395,-0.557192 0.928911,-0.781267 1.869576,-0.823822 0.582761,-0.02636 0.731261,-0.0113 1.119784,0.113632 0.36683,0.117952 0.512227,0.207163 0.8031,0.492756 0.618046,0.606828 0.68434,1.11722 0.408702,3.146557 -0.08536,0.628467 -0.324608,2.378238 -0.531654,3.888378 -0.207048,1.51014 -0.37645,2.767273 -0.37645,2.793627 0,0.02636 0.598111,0.0587 1.329136,0.07187 1.199016,0.02161 1.364021,0.03777 1.685487,0.165005 0.451855,0.178849 0.906392,0.659293 1.111199,1.17453 0.218028,0.548502 0.24791,1.42152 0.06699,1.957092 -0.246045,0.728348 -0.616266,1.14411 -1.236461,1.38856 -0.332011,0.130861 -0.489658,0.144894 -1.986861,0.176864 l -1.626236,0.03473 -0.388072,2.877187 c -0.213439,1.582453 -0.389354,2.938098 -0.390922,3.012544 -0.0028,0.133886 0.01159,0.135618 1.326285,0.159331 1.019997,0.0184 1.391757,0.04732 1.598379,0.124332 0.873593,0.325621 1.337998,1.087675 1.345569,2.207977 0.0063,0.929219 -0.290216,1.626597 -0.882639,2.076022 -0.467882,0.354946 -0.721969,0.394606 -2.528094,0.394606 -1.237382,0 -1.623182,0.01835 -1.643841,0.07818 -0.01485,0.043 -0.268104,1.886289 -0.562793,4.096194 -0.626189,4.695859 -0.687546,4.961388 -1.299982,5.625802 -0.315073,0.341814 -0.616228,0.501847 -1.162129,0.617554 -1.389592,0.294531 -2.64915,-0.227107 -2.984215,-1.235894 -0.16356,-0.492434 -0.09058,-1.299244 0.490239,-5.419672 0.349456,-2.479093 0.500976,-3.720823 0.456128,-3.738033 -0.03693,-0.01417 -1.065016,-0.01837 -2.284624,-0.0093 l -2.217468,0.01645 -0.544379,4.042393 c -0.299409,2.223316 -0.589452,4.218326 -0.64454,4.433356 -0.199677,0.779415 -0.599392,1.378805 -1.101857,1.652281 -0.577427,0.314275 -1.541098,0.427695 -2.217931,0.261041 z M 25.028579,51.247036 c 0.214933,-1.582453 0.39228,-2.940517 0.394105,-3.017919 l 0.0033,-0.140732 -2.280151,0 -2.280151,0 -0.03425,0.203279 c -0.01884,0.111804 -0.189013,1.371355 -0.378166,2.799003 -0.189153,1.427647 -0.360499,2.701621 -0.38077,2.831052 l -0.03686,0.23533 2.301069,-0.01641 2.301068,-0.01641 0.390788,-2.877187 z m 17.645745,18.172303 c -1.646542,-0.301114 -2.857982,-1.610198 -3.111296,-3.362071 -0.08569,-0.592584 -0.08449,-20.302544 0.0013,-20.846071 0.195757,-1.24074 0.896698,-2.302707 1.894084,-2.869647 0.5895,-0.335087 1.172088,-0.472389 1.981323,-0.466949 0.599159,0.004 0.804514,0.0325 1.229521,0.170465 0.958418,0.311127 1.754949,1.010641 2.216411,1.946454 0.461536,0.935961 0.436077,0.213997 0.417451,11.838267 l -0.01671,10.428659 -0.171412,0.500381 c -0.225475,0.658198 -0.467435,1.066587 -0.915759,1.545648 -0.424879,0.454009 -0.990223,0.811262 -1.5711,0.992812 -0.459939,0.143751 -1.484973,0.207785 -1.953773,0.122052 z m 11.179536,-0.03368 c -1.076667,-0.223482 -2.032181,-0.97071 -2.523878,-1.973714 -0.519525,-1.059771 -0.478404,-0.04935 -0.478404,-11.755306 0,-9.981594 0.0049,-10.432353 0.117162,-10.852 0.423206,-1.581515 1.550432,-2.627793 3.116907,-2.893074 0.678101,-0.114836 1.42649,-0.05133 2.104868,0.178604 0.816021,0.276595 1.830142,1.112717 2.271077,1.872463 l 0.208427,0.359134 0.646523,-0.649279 c 0.828117,-0.83165 1.508847,-1.343188 2.293212,-1.723256 0.758207,-0.367392 1.429724,-0.546906 2.220437,-0.593581 0.765338,-0.04518 1.357801,0.0768 2.064069,0.424944 0.425561,0.209773 0.637904,0.369156 1.064053,0.798667 0.844917,0.851577 1.143188,1.60641 1.138853,2.882128 -0.0055,1.630283 -0.627558,2.530558 -2.25345,3.26149 -0.705405,0.317122 -1.438012,0.585239 -2.451357,0.897143 -3.362337,1.034912 -4.224336,1.83758 -4.63563,4.316559 -0.04932,0.297282 -0.08591,2.355351 -0.113974,6.411123 -0.03815,5.513094 -0.05,5.999794 -0.153792,6.317302 -0.427,1.3062 -1.395987,2.294857 -2.60231,2.65514 -0.485757,0.145078 -1.493074,0.177542 -2.032793,0.06551 z M 42.407659,39.368967 c -1.656516,-0.3787 -2.954771,-1.606761 -3.480078,-3.291915 -0.120591,-0.386849 -0.145729,-0.606316 -0.146613,-1.280021 -0.0013,-0.962033 0.07039,-1.299564 0.438177,-2.064069 0.610398,-1.268819 1.726926,-2.215007 3.032145,-2.569555 0.615855,-0.16729 1.761044,-0.154098 2.405262,0.02771 0.940814,0.265509 1.828355,0.85725 2.416399,1.611063 0.684309,0.877213 0.9368,1.575929 0.980627,2.713687 0.03868,1.004013 -0.07135,1.577653 -0.449835,2.345236 -0.575585,1.167317 -1.56532,2.012977 -2.819277,2.408876 -0.558021,0.176177 -1.81092,0.22836 -2.376807,0.09899 z"
     id="path4138"
     inkscape:connector-curvature="0" />
</svg>
