<?xml version="1.0" encoding="UTF-8" standalone="no"?>
<svg
   xmlns:dc="http://purl.org/dc/elements/1.1/"
   xmlns:cc="http://creativecommons.org/ns#"
   xmlns:rdf="http://www.w3.org/1999/02/22-rdf-syntax-ns#"
   xmlns:svg="http://www.w3.org/2000/svg"
   xmlns="http://www.w3.org/2000/svg"
   xmlns:sodipodi="http://sodipodi.sourceforge.net/DTD/sodipodi-0.dtd"
   xmlns:inkscape="http://www.inkscape.org/namespaces/inkscape"
   width="100"
   height="100"
   viewBox="0 0 10.24 10.24"
   preserveAspectRatio="xMidYMid"
   id="svg2"
   version="1.1"
   inkscape:version="0.91 r13725"
   sodipodi:docname="slack.svg">
  <metadata
     id="metadata24">
    <rdf:RDF>
      <cc:Work
         rdf:about="">
        <dc:format>image/svg+xml</dc:format>
        <dc:type
           rdf:resource="http://purl.org/dc/dcmitype/StillImage" />
        <dc:title></dc:title>
      </cc:Work>
    </rdf:RDF>
  </metadata>
  <defs
     id="defs22" />
  <sodipodi:namedview
     pagecolor="#ffffff"
     bordercolor="#666666"
     borderopacity="1"
     objecttolerance="10"
     gridtolerance="10"
     guidetolerance="10"
     inkscape:pageopacity="0"
     inkscape:pageshadow="2"
     inkscape:window-width="1375"
     inkscape:window-height="692"
     id="namedview20"
     showgrid="false"
     inkscape:zoom="2.1360282"
     inkscape:cx="47.966771"
     inkscape:cy="72.501388"
     inkscape:window-x="8"
     inkscape:window-y="102"
     inkscape:window-maximized="0"
     inkscape:current-layer="svg2" />
  <g
     id="g4170"
     transform="matrix(0.03201003,0,0,0.03201003,0.19065301,-0.06190409)">
    <path
       style="fill:#dfa22f"
       inkscape:connector-curvature="0"
       id="path4"
       d="m 191.9979,49.682068 c -3.89,-11.975 -16.752,-18.528 -28.725,-14.636 -11.975,3.89 -18.528,16.752 -14.636,28.725 l 58.947,181.365002 c 4.048,11.187 16.132,17.473 27.732,14.135 12.1,-3.483 19.475,-16.334 15.614,-28.217 L 191.9979,49.682068" />
    <path
       style="fill:#3cb187"
       inkscape:connector-curvature="0"
       id="path6"
       d="m 100.6599,79.360068 c -3.892002,-11.974 -16.753002,-18.527 -28.726002,-14.637 -11.976,3.891 -18.53,16.752 -14.637,28.727 L 116.2449,274.81607 c 4.047,11.186 16.132,17.473 27.732,14.132 12.099,-3.481 19.474,-16.332 15.613,-28.217 l -58.93,-181.371002" />
    <path
       style="fill:#ce1e5b"
       inkscape:connector-curvature="0"
       id="path8"
       d="m 266.1959,199.88907 c 11.975,-3.89 18.526,-16.75 14.636,-28.726 -3.89,-11.973 -16.752,-18.527 -28.725,-14.636 l -181.365002,58.949 c -11.187,4.046 -17.473,16.13 -14.135,27.73 3.483,12.099 16.334,19.475 28.217,15.614 l 181.372002,-58.93" />
    <path
       style="fill:#392538"
       inkscape:connector-curvature="0"
       id="path10"
       d="m 108.5419,251.11407 43.347,-14.084 -14.086,-43.352 -43.350002,14.09 14.089002,43.347" />
    <path
       style="fill:#bb242a"
       inkscape:connector-curvature="0"
       id="path12"
       d="m 199.8809,221.43507 c 16.388,-5.323 31.62,-10.273 43.348,-14.084 l -14.088,-43.36 -43.35,14.09 14.09,43.354" />
    <path
       style="fill:#72c5cd"
       inkscape:connector-curvature="0"
       id="path14"
       d="m 236.5179,108.55007 c 11.974,-3.89 18.527,-16.751002 14.637,-28.727002 -3.89,-11.973 -16.752,-18.526 -28.727,-14.636 L 41.061898,124.13707 c -11.186,4.044 -17.473,16.129 -14.132,27.729 3.481,12.098 16.332,19.474 28.217,15.613 l 181.371002,-58.93" />
    <path
       style="fill:#248c73"
       inkscape:connector-curvature="0"
       id="path16"
       d="m 78.855898,159.77707 c 11.805,-3.836 27.025002,-8.782 43.354002,-14.086 -5.323,-16.39 -10.273,-31.622 -14.084,-43.352 l -43.360002,14.092 14.09,43.346" />
    <path
       style="fill:#62803a"
       inkscape:connector-curvature="0"
       id="path18"
       d="m 170.1939,130.10007 43.356,-14.088" />
  </g>
</svg>
