<?xml version="1.0" encoding="UTF-8" standalone="no"?>
<svg
   xmlns:dc="http://purl.org/dc/elements/1.1/"
   xmlns:cc="http://creativecommons.org/ns#"
   xmlns:rdf="http://www.w3.org/1999/02/22-rdf-syntax-ns#"
   xmlns:svg="http://www.w3.org/2000/svg"
   xmlns="http://www.w3.org/2000/svg"
   xmlns:sodipodi="http://sodipodi.sourceforge.net/DTD/sodipodi-0.dtd"
   xmlns:inkscape="http://www.inkscape.org/namespaces/inkscape"
   viewBox="0 0 100 100"
   height="100"
   width="100"
   xml:space="preserve"
   id="svg2"
   version="1.1"
   inkscape:version="0.91 r13725"
   sodipodi:docname="YouTube_logo_2013.svg"><sodipodi:namedview
     pagecolor="#ffffff"
     bordercolor="#666666"
     borderopacity="1"
     objecttolerance="10"
     gridtolerance="10"
     guidetolerance="10"
     inkscape:pageopacity="0"
     inkscape:pageshadow="2"
     inkscape:window-width="1316"
     inkscape:window-height="724"
     id="namedview29"
     showgrid="false"
     inkscape:zoom="1.8562133"
     inkscape:cx="-3.853003"
     inkscape:cy="33.730916"
     inkscape:window-x="40"
     inkscape:window-y="9"
     inkscape:window-maximized="0"
     inkscape:current-layer="svg2" /><metadata
     id="metadata8"><rdf:RDF><cc:Work
         rdf:about=""><dc:format>image/svg+xml</dc:format><dc:type
           rdf:resource="http://purl.org/dc/dcmitype/StillImage" /><dc:title></dc:title></cc:Work></rdf:RDF></metadata><defs
     id="defs6"><clipPath
       id="clipPath20"
       clipPathUnits="userSpaceOnUse"><path
         id="path18"
         d="m 0,0 0,2091 5010,0 0,-2091 z"
         inkscape:connector-curvature="0" /></clipPath><clipPath
       id="clipPath26"
       clipPathUnits="userSpaceOnUse"><path
         id="path24"
         d="m 4980.41,1639.73 c 0,0 -29.18,204.85 -118.71,295.06 -113.54,118.39 -240.84,118.99 -299.2,125.91 -417.85,30.07 -1044.65,30.07 -1044.65,30.07 l -1.31,0 c 0,0 -626.81,0 -1044.66,-30.07 -58.38,-6.92 -185.63,-7.52 -299.2,-125.91 -89.54,-90.21 -118.68,-295.06 -118.68,-295.06 0,0 -29.86,-240.55 -29.86,-481.12 l 0,-225.528 c 0,-240.543 29.86,-481.094 29.86,-481.094 0,0 29.14,-204.84 118.68,-295.058 C 2286.25,38.5117 2435.49,42.2812 2501.93,29.8789 2740.82,7.05078 3517.19,0 3517.19,0 c 0,0 627.46,0.941406 1045.31,30.9883 58.36,6.9414 185.66,7.5234 299.2,125.9417 89.53,90.218 118.71,295.058 118.71,295.058 0,0 29.82,240.551 29.82,481.094 l 0,225.528 c 0,240.57 -29.82,481.12 -29.82,481.12 z"
         inkscape:connector-curvature="0" /></clipPath><linearGradient
       id="linearGradient32"
       spreadMethod="pad"
       gradientTransform="matrix(-9.14e-5,-2090.78,-2090.78,9.14e-5,3517.19,2090.77)"
       gradientUnits="userSpaceOnUse"
       y2="0"
       x2="1"
       y1="0"
       x1="0"><stop
         id="stop28"
         offset="0"
         style="stop-opacity:1;stop-color:#e42526" /><stop
         id="stop30"
         offset="1"
         style="stop-opacity:1;stop-color:#be1f26" /></linearGradient><clipPath
       id="clipPath42"
       clipPathUnits="userSpaceOnUse"><path
         id="path40"
         d="m 0,0 5010,0 0,2090.77 -5010,0 z"
         inkscape:connector-curvature="0" /></clipPath></defs><g
     transform="matrix(0.15968064,0,0,-0.15968064,9.9999997,66.692775)"
     id="g10"><g
       transform="scale(0.1,0.1)"
       id="g12"><g
         id="g14"><g
           clip-path="url(#clipPath20)"
           id="g16"><g
             clip-path="url(#clipPath26)"
             id="g22"><path
               id="path34"
               style="fill:url(#linearGradient32);fill-opacity:1;fill-rule:nonzero;stroke:none"
               d="m 3428,0 0,1 -75,0 0,1 -67,0 0,1 -61,0 0,1 -56,0 0,1 -51,0 0,1 -48,0 0,1 -46,0 0,1 -42,0 0,1 -39,0 0,1 -37,0 0,1 -35,0 0,1 -33,0 0,1 -31,0 0,1 -29,0 0,1 -28,0 0,1 -26,0 0,1 -25,0 0,1 -23,0 0,1 -22,0 0,1 -20,0 0,1 -20,0 0,1 -17,0 0,1 -17,0 0,1 -16,0 0,1 -15,0 0,1 -13,0 0,1 -13,0 0,1 -11,0 0,1 -11,0 0,1 -6,0 0,1 -7,0 0,1 -7,0 0,1 -8,0 0,1 -8,0 0,1 -8,0 0,1 -8,0 0,1 -9,0 0,1 -7,0 0,1 -7,0 0,1 -8,0 0,1 -6,0 0,1 -6,0 0,1 -6,0 0,1 -6,0 0,1 -5,0 0,1 -5,0 0,1 -5,0 0,1 -5,0 0,1 -4,0 0,1 -4,0 0,1 -4,0 0,1 -5,0 0,1 -4,0 0,1 -3,0 0,1 -4,0 0,1 -3,0 0,1 -4,0 0,1 -3,0 0,1 -4,0 0,1 -3,0 0,1 -3,0 0,1 -3,0 0,1 -3,0 0,1 -3,0 0,1 -3,0 0,1 -2,0 0,1 -3,0 0,1 -3,0 0,1 -2,0 0,1 -3,0 0,1 -2,0 0,1 -3,0 0,1 -2,0 0,1 -2,0 0,1 -3,0 0,1 -2,0 0,1 -3,0 0,1 -2,0 0,1 -2,0 0,1 -2,0 0,1 -2,0 0,1 -2,0 0,1 -2,0 0,1 -2,0 0,1 -2,0 0,1 -2,0 0,1 -2,0 0,1 -2,0 0,1 -2,0 0,1 -1,0 0,1 -2,0 0,1 -2,0 0,1 -2,0 0,1 -1,0 0,1 -2,0 0,1 -2,0 0,1 -2,0 0,1 -1,0 0,1 -2,0 0,1 -2,0 0,1 -1,0 0,1 -2,0 0,1 -1,0 0,1 -2,0 0,1 -1,0 0,1 -2,0 0,1 -1,0 0,1 -2,0 0,1 -1,0 0,1 -2,0 0,1 -1,0 0,1 -2,0 0,1 -1,0 0,1 -1,0 0,1 -2,0 0,1 -1,0 0,1 -2,0 0,1 -1,0 0,1 -1,0 0,1 -2,0 0,1 -1,0 0,1 -1,0 0,1 -1,0 0,1 -1,0 0,1 -2,0 0,1 -1,0 0,1 -1,0 0,1 -1,0 0,1 -2,0 0,1 -1,0 0,1 -1,0 0,1 -1,0 0,1 -2,0 0,1 -1,0 0,1 -1,0 0,1 -1,0 0,1 -1,0 0,1 -1,0 0,1 -1,0 0,1 -1,0 0,1 -1,0 0,1 -1,0 0,1 -1,0 0,1 -1,0 0,1 -1,0 0,1 -1,0 0,1 -2,0 0,1 -1,0 0,1 -1,0 0,1 -1,0 0,1 -1,0 0,1 -1,0 0,1 -1,0 0,1 -1,0 0,1 -1,0 0,1 -1,0 0,1 -1,0 0,1 -1,0 0,1 -1,0 0,2 -1,0 0,1 -1,0 0,1 -1,0 0,1 -1,0 0,1 -1,0 0,1 -1,0 0,1 -1,0 0,2 -1,0 0,1 -1,0 0,1 -1,0 0,1 -1,0 0,1 -1,0 0,1 -1,0 0,1 -1,0 0,2 -1,0 0,1 -1,0 0,2 -1,0 0,1 -1,0 0,1 -1,0 0,2 -1,0 0,1 -1,0 0,2 -1,0 0,1 -1,0 0,1 -1,0 0,2 -1,0 0,1 -1,0 0,1 -1,0 0,2 -1,0 0,1 -1,0 0,2 -1,0 0,2 -1,0 0,1 -1,0 0,2 -1,0 0,2 -1,0 0,1 -1,0 0,2 -1,0 0,2 -1,0 0,1 -1,0 0,2 -1,0 0,2 -1,0 0,1 -1,0 0,2 -1,0 0,2 -1,0 0,2 -1,0 0,2 -1,0 0,2 -1,0 0,2 -1,0 0,2 -1,0 0,2 -1,0 0,2 -1,0 0,1 -1,0 0,2 -1,0 0,2 -1,0 0,2 -1,0 0,3 -1,0 0,2 -1,0 0,2 -1,0 0,2 -1,0 0,3 -1,0 0,2 -1,0 0,2 -1,0 0,2 -1,0 0,2 -1,0 0,3 -1,0 0,2 -1,0 0,3 -1,0 0,2 -1,0 0,3 -1,0 0,2 -1,0 0,3 -1,0 0,2 -1,0 0,3 -1,0 0,2 -1,0 0,3 -1,0 0,3 -1,0 0,3 -1,0 0,2 -1,0 0,3 -1,0 0,3 -1,0 0,3 -1,0 0,3 -1,0 0,3 -1,0 0,3 -1,0 0,3 -1,0 0,3 -1,0 0,3 -1,0 0,3 -1,0 0,4 -1,0 0,3 -1,0 0,3 -1,0 0,4 -1,0 0,3 -1,0 0,4 -1,0 0,3 -1,0 0,4 -1,0 0,3 -1,0 0,4 -1,0 0,4 -1,0 0,4 -1,0 0,4 -1,0 0,4 -1,0 0,4 -1,0 0,4 -1,0 0,4 -1,0 0,5 -1,0 0,4 -1,0 0,5 -1,0 0,4 -1,0 0,5 -1,0 0,5 -1,0 0,5 -1,0 0,5 -1,0 0,6 -1,0 0,5 -1,0 0,6 -1,0 0,7 -1,0 0,8 -1,0 0,9 -1,0 0,9 -1,0 0,9 -1,0 0,9 -1,0 0,10 -1,0 0,9 -1,0 0,11 -1,0 0,10 -1,0 0,10 -1,0 0,11 -1,0 0,11 -1,0 0,11 -1,0 0,12 -1,0 0,12 -1,0 0,12 -1,0 0,13 -1,0 0,13 -1,0 0,14 -1,0 0,14 -1,0 0,15 -1,0 0,16 -1,0 0,16 -1,0 0,18 -1,0 0,18 -1,0 0,22 -1,0 0,23 -1,0 0,29 -1,0 0,37 -1,0 0,366 1,0 0,37 1,0 0,29 1,0 0,23 1,0 0,21 1,0 0,19 1,0 0,18 1,0 0,16 1,0 0,16 1,0 0,15 1,0 0,14 1,0 0,14 1,0 0,13 1,0 0,12 1,0 0,13 1,0 0,12 1,0 0,11 1,0 0,12 1,0 0,11 1,0 0,10 1,0 0,11 1,0 0,10 1,0 0,10 1,0 0,10 1,0 0,10 1,0 0,9 1,0 0,9 1,0 0,9 1,0 0,9 1,0 0,8 1,0 0,7 1,0 0,5 1,0 0,6 1,0 0,5 1,0 0,6 1,0 0,5 1,0 0,5 1,0 0,4 1,0 0,5 1,0 0,5 1,0 0,4 1,0 0,4 1,0 0,5 1,0 0,4 1,0 0,4 1,0 0,4 1,0 0,4 1,0 0,4 1,0 0,4 1,0 0,3 1,0 0,4 1,0 0,4 1,0 0,3 1,0 0,4 1,0 0,3 1,0 0,4 1,0 0,3 1,0 0,3 1,0 0,3 1,0 0,3 1,0 0,4 1,0 0,3 1,0 0,3 1,0 0,3 1,0 0,3 1,0 0,3 1,0 0,3 1,0 0,2 1,0 0,3 1,0 0,3 1,0 0,3 1,0 0,3 1,0 0,2 1,0 0,3 1,0 0,2 1,0 0,3 1,0 0,3 1,0 0,2 1,0 0,3 1,0 0,2 1,0 0,3 1,0 0,2 1,0 0,2 1,0 0,2 1,0 0,3 1,0 0,2 1,0 0,2 1,0 0,2 1,0 0,3 1,0 0,2 1,0 0,2 1,0 0,2 1,0 0,2 1,0 0,2 1,0 0,2 1,0 0,2 1,0 0,2 1,0 0,2 1,0 0,2 1,0 0,2 1,0 0,2 1,0 0,2 1,0 0,2 1,0 0,2 1,0 0,1 1,0 0,2 1,0 0,2 1,0 0,1 1,0 0,2 1,0 0,2 1,0 0,1 1,0 0,2 1,0 0,2 1,0 0,1 1,0 0,2 1,0 0,2 1,0 0,1 1,0 0,2 1,0 0,1 1,0 0,2 1,0 0,1 1,0 0,1 1,0 0,2 1,0 0,1 1,0 0,2 1,0 0,1 1,0 0,1 1,0 0,2 1,0 0,1 1,0 0,2 1,0 0,1 1,0 0,1 1,0 0,2 1,0 0,1 1,0 0,1 1,0 0,1 1,0 0,1 1,0 0,1 1,0 0,1 1,0 0,1 1,0 0,2 1,0 0,1 1,0 0,1 1,0 0,1 1,0 0,1 1,0 0,1 1,0 0,1 1,0 0,2 1,0 0,1 1,0 0,1 1,0 0,1 1,0 0,1 2,0 0,1 1,0 0,1 1,0 0,1 1,0 0,1 1,0 0,1 1,0 0,1 1,0 0,1 1,0 0,1 1,0 0,1 1,0 0,1 1,0 0,1 1,0 0,1 1,0 0,1 1,0 0,1 1,0 0,1 1,0 0,1 1,0 0,1 1,0 0,1 1,0 0,1 1,0 0,1 2,0 0,1 1,0 0,1 1,0 0,1 1,0 0,1 1,0 0,1 2,0 0,1 1,0 0,1 1,0 0,1 1,0 0,1 1,0 0,1 1,0 0,1 2,0 0,1 1,0 0,1 1,0 0,1 1,0 0,1 1,0 0,1 2,0 0,1 1,0 0,1 1,0 0,1 2,0 0,1 1,0 0,1 2,0 0,1 1,0 0,1 1,0 0,1 2,0 0,1 1,0 0,1 1,0 0,1 2,0 0,1 1,0 0,1 2,0 0,1 1,0 0,1 1,0 0,1 2,0 0,1 1,0 0,1 2,0 0,1 2,0 0,1 1,0 0,1 2,0 0,1 1,0 0,1 2,0 0,1 2,0 0,1 1,0 0,1 2,0 0,1 1,0 0,1 2,0 0,1 2,0 0,1 2,0 0,1 1,0 0,1 2,0 0,1 2,0 0,1 2,0 0,1 2,0 0,1 2,0 0,1 1,0 0,1 2,0 0,1 2,0 0,1 2,0 0,1 2,0 0,1 2,0 0,1 3,0 0,1 2,0 0,1 2,0 0,1 2,0 0,1 2,0 0,1 2,0 0,1 3,0 0,1 2,0 0,1 2,0 0,1 3,0 0,1 3,0 0,1 2,0 0,1 3,0 0,1 2,0 0,1 3,0 0,1 2,0 0,1 3,0 0,1 4,0 0,1 3,0 0,1 3,0 0,1 3,0 0,1 3,0 0,1 3,0 0,1 4,0 0,1 4,0 0,1 3,0 0,1 4,0 0,1 4,0 0,1 4,0 0,1 5,0 0,1 4,0 0,1 5,0 0,1 5,0 0,1 6,0 0,1 5,0 0,1 7,0 0,1 7,0 0,1 7,0 0,1 8,0 0,1 9,0 0,1 10,0 0,1 10,0 0,1 10,0 0,1 11,0 0,1 14,0 0,1 15,0 0,1 15,0 0,1 16,0 0,1 16,0 0,1 18,0 0,1 17,0 0,1 18,0 0,1 19,0 0,1 20,0 0,1 21,0 0,1 21,0 0,1 23,0 0,1 23,0 0,1 24,0 0,1 26,0 0,1 27,0 0,1 28,0 0,1 30,0 0,1 32,0 0,1 34,0 0,1 37,0 0,1 39,0 0,1 42,0 0,1 47,0 0,1 52,0 0,1 60,0 0,1 71,0 0,1 94,0 0,1 285,0 0,-1 93,0 0,-1 71,0 0,-1 60,0 0,-1 52,0 0,-1 47,0 0,-1 43,0 0,-1 39,0 0,-1 36,0 0,-1 34,0 0,-1 32,0 0,-1 30,0 0,-1 29,0 0,-1 26,0 0,-1 26,0 0,-1 25,0 0,-1 23,0 0,-1 22,0 0,-1 22,0 0,-1 20,0 0,-1 20,0 0,-1 19,0 0,-1 18,0 0,-1 18,0 0,-1 17,0 0,-1 16,0 0,-1 16,0 0,-1 16,0 0,-1 14,0 0,-1 15,0 0,-1 11,0 0,-1 9,0 0,-1 11,0 0,-1 9,0 0,-1 9,0 0,-1 8,0 0,-1 8,0 0,-1 6,0 0,-1 7,0 0,-1 5,0 0,-1 6,0 0,-1 6,0 0,-1 4,0 0,-1 5,0 0,-1 4,0 0,-1 5,0 0,-1 3,0 0,-1 4,0 0,-1 4,0 0,-1 4,0 0,-1 3,0 0,-1 4,0 0,-1 3,0 0,-1 3,0 0,-1 3,0 0,-1 3,0 0,-1 3,0 0,-1 3,0 0,-1 3,0 0,-1 2,0 0,-1 3,0 0,-1 2,0 0,-1 3,0 0,-1 2,0 0,-1 3,0 0,-1 3,0 0,-1 2,0 0,-1 2,0 0,-1 2,0 0,-1 2,0 0,-1 3,0 0,-1 2,0 0,-1 2,0 0,-1 2,0 0,-1 2,0 0,-1 2,0 0,-1 2,0 0,-1 2,0 0,-1 2,0 0,-1 2,0 0,-1 2,0 0,-1 1,0 0,-1 2,0 0,-1 2,0 0,-1 2,0 0,-1 2,0 0,-1 2,0 0,-1 1,0 0,-1 2,0 0,-1 2,0 0,-1 1,0 0,-1 2,0 0,-1 1,0 0,-1 2,0 0,-1 2,0 0,-1 1,0 0,-1 2,0 0,-1 1,0 0,-1 2,0 0,-1 1,0 0,-1 2,0 0,-1 1,0 0,-1 2,0 0,-1 1,0 0,-1 2,0 0,-1 1,0 0,-1 1,0 0,-1 2,0 0,-1 1,0 0,-1 1,0 0,-1 2,0 0,-1 1,0 0,-1 2,0 0,-1 1,0 0,-1 1,0 0,-1 2,0 0,-1 1,0 0,-1 1,0 0,-1 1,0 0,-1 2,0 0,-1 1,0 0,-1 1,0 0,-1 1,0 0,-1 1,0 0,-1 2,0 0,-1 1,0 0,-1 1,0 0,-1 1,0 0,-1 1,0 0,-1 1,0 0,-1 2,0 0,-1 1,0 0,-1 1,0 0,-1 1,0 0,-1 1,0 0,-1 1,0 0,-1 1,0 0,-1 1,0 0,-1 2,0 0,-1 1,0 0,-1 1,0 0,-1 1,0 0,-1 1,0 0,-1 1,0 0,-1 1,0 0,-1 1,0 0,-1 1,0 0,-1 1,0 0,-1 1,0 0,-1 1,0 0,-1 1,0 0,-1 1,0 0,-1 1,0 0,-1 1,0 0,-1 1,0 0,-1 1,0 0,-1 1,0 0,-1 1,0 0,-1 1,0 0,-1 1,0 0,-2 1,0 0,-1 1,0 0,-1 1,0 0,-1 1,0 0,-1 1,0 0,-1 1,0 0,-1 1,0 0,-1 1,0 0,-2 1,0 0,-1 1,0 0,-1 1,0 0,-1 1,0 0,-1 1,0 0,-2 1,0 0,-1 1,0 0,-1 1,0 0,-2 1,0 0,-1 1,0 0,-2 1,0 0,-1 1,0 0,-1 1,0 0,-2 1,0 0,-1 1,0 0,-1 1,0 0,-2 1,0 0,-1 1,0 0,-2 1,0 0,-1 1,0 0,-2 1,0 0,-1 1,0 0,-2 1,0 0,-2 1,0 0,-1 1,0 0,-2 1,0 0,-2 1,0 0,-1 1,0 0,-2 1,0 0,-2 1,0 0,-1 1,0 0,-2 1,0 0,-2 1,0 0,-2 1,0 0,-2 1,0 0,-1 1,0 0,-2 1,0 0,-2 1,0 0,-2 1,0 0,-2 1,0 0,-2 1,0 0,-2 1,0 0,-2 1,0 0,-2 1,0 0,-2 1,0 0,-2 1,0 0,-2 1,0 0,-3 1,0 0,-2 1,0 0,-2 1,0 0,-2 1,0 0,-2 1,0 0,-3 1,0 0,-2 1,0 0,-2 1,0 0,-2 1,0 0,-3 1,0 0,-2 1,0 0,-3 1,0 0,-3 1,0 0,-2 1,0 0,-3 1,0 0,-2 1,0 0,-3 1,0 0,-2 1,0 0,-3 1,0 0,-3 1,0 0,-3 1,0 0,-2 1,0 0,-3 1,0 0,-3 1,0 0,-3 1,0 0,-3 1,0 0,-3 1,0 0,-3 1,0 0,-3 1,0 0,-3 1,0 0,-3 1,0 0,-4 1,0 0,-3 1,0 0,-3 1,0 0,-3 1,0 0,-4 1,0 0,-4 1,0 0,-3 1,0 0,-4 1,0 0,-3 1,0 0,-4 1,0 0,-4 1,0 0,-4 1,0 0,-4 1,0 0,-3 1,0 0,-4 1,0 0,-5 1,0 0,-4 1,0 0,-4 1,0 0,-5 1,0 0,-4 1,0 0,-5 1,0 0,-4 1,0 0,-5 1,0 0,-5 1,0 0,-5 1,0 0,-6 1,0 0,-5 1,0 0,-6 1,0 0,-6 1,0 0,-8 1,0 0,-8 1,0 0,-9 1,0 0,-9 1,0 0,-10 1,0 0,-9 1,0 0,-10 1,0 0,-10 1,0 0,-10 1,0 0,-10 1,0 0,-11 1,0 0,-11 1,0 0,-11 1,0 0,-12 1,0 0,-11 1,0 0,-13 1,0 0,-12 1,0 0,-13 1,0 0,-14 1,0 0,-14 1,0 0,-14 1,0 0,-16 1,0 0,-16 1,0 0,-17 1,0 0,-19 1,0 0,-20 1,0 0,-22 1,0 0,-27 1,0 0,-31 1,0 0,-401 -1,0 0,-30 -1,0 0,-27 -1,0 0,-22 -1,0 0,-21 -1,0 0,-18 -1,0 0,-18 -1,0 0,-15 -1,0 0,-16 -1,0 0,-14 -1,0 0,-14 -1,0 0,-14 -1,0 0,-13 -1,0 0,-13 -1,0 0,-12 -1,0 0,-12 -1,0 0,-11 -1,0 0,-11 -1,0 0,-11 -1,0 0,-11 -1,0 0,-10 -1,0 0,-10 -1,0 0,-11 -1,0 0,-9 -1,0 0,-10 -1,0 0,-9 -1,0 0,-9 -1,0 0,-9 -1,0 0,-9 -1,0 0,-7 -1,0 0,-6 -1,0 0,-6 -1,0 0,-6 -1,0 0,-5 -1,0 0,-5 -1,0 0,-5 -1,0 0,-5 -1,0 0,-5 -1,0 0,-4 -1,0 0,-5 -1,0 0,-4 -1,0 0,-4 -1,0 0,-5 -1,0 0,-4 -1,0 0,-4 -1,0 0,-4 -1,0 0,-4 -1,0 0,-4 -1,0 0,-4 -1,0 0,-3 -1,0 0,-4 -1,0 0,-3 -1,0 0,-4 -1,0 0,-3 -1,0 0,-4 -1,0 0,-3 -1,0 0,-3 -1,0 0,-4 -1,0 0,-3 -1,0 0,-3 -1,0 0,-3 -1,0 0,-3 -1,0 0,-4 -1,0 0,-2 -1,0 0,-3 -1,0 0,-3 -1,0 0,-3 -1,0 0,-3 -1,0 0,-3 -1,0 0,-3 -1,0 0,-2 -1,0 0,-3 -1,0 0,-3 -1,0 0,-2 -1,0 0,-3 -1,0 0,-2 -1,0 0,-3 -1,0 0,-2 -1,0 0,-3 -1,0 0,-2 -1,0 0,-3 -1,0 0,-2 -1,0 0,-2 -1,0 0,-3 -1,0 0,-2 -1,0 0,-2 -1,0 0,-2 -1,0 0,-3 -1,0 0,-2 -1,0 0,-2 -1,0 0,-2 -1,0 0,-2 -1,0 0,-2 -1,0 0,-2 -1,0 0,-2 -1,0 0,-2 -1,0 0,-2 -1,0 0,-2 -1,0 0,-2 -1,0 0,-2 -1,0 0,-2 -1,0 0,-2 -1,0 0,-2 -1,0 0,-2 -1,0 0,-1 -1,0 0,-2 -1,0 0,-2 -1,0 0,-1 -1,0 0,-2 -1,0 0,-2 -1,0 0,-1 -1,0 0,-2 -1,0 0,-2 -1,0 0,-1 -1,0 0,-2 -1,0 0,-2 -1,0 0,-1 -1,0 0,-2 -1,0 0,-1 -1,0 0,-1 -1,0 0,-2 -1,0 0,-1 -1,0 0,-2 -1,0 0,-1 -1,0 0,-1 -1,0 0,-2 -1,0 0,-1 -1,0 0,-2 -1,0 0,-1 -1,0 0,-1 -1,0 0,-2 -1,0 0,-1 -1,0 0,-1 -1,0 0,-1 -1,0 0,-2 -1,0 0,-1 -1,0 0,-1 -1,0 0,-1 -1,0 0,-1 -1,0 0,-1 -1,0 0,-1 -1,0 0,-1 -1,0 0,-2 -1,0 0,-1 -1,0 0,-1 -1,0 0,-1 -1,0 0,-1 -1,0 0,-1 -1,0 0,-1 -1,0 0,-1 -1,0 0,-1 -1,0 0,-1 -1,0 0,-1 -1,0 0,-1 -1,0 0,-1 -1,0 0,-1 -1,0 0,-1 -1,0 0,-1 -1,0 0,-1 -1,0 0,-1 -1,0 0,-1 -1,0 0,-1 -1,0 0,-1 -1,0 0,-1 -1,0 0,-1 -1,0 0,-1 -1,0 0,-1 -1,0 0,-1 -1,0 0,-1 -1,0 0,-1 -2,0 0,-1 -1,0 0,-1 -1,0 0,-1 -1,0 0,-1 -1,0 0,-1 -1,0 0,-1 -2,0 0,-1 -1,0 0,-1 -1,0 0,-1 -1,0 0,-1 -1,0 0,-1 -2,0 0,-1 -1,0 0,-1 -1,0 0,-1 -1,0 0,-1 -1,0 0,-1 -1,0 0,-1 -2,0 0,-1 -1,0 0,-1 -1,0 0,-1 -2,0 0,-1 -1,0 0,-1 -1,0 0,-1 -2,0 0,-1 -1,0 0,-1 -2,0 0,-1 -1,0 0,-1 -1,0 0,-1 -2,0 0,-1 -1,0 0,-1 -1,0 0,-1 -2,0 0,-1 -1,0 0,-1 -1,0 0,-1 -2,0 0,-1 -2,0 0,-1 -1,0 0,-1 -2,0 0,-1 -1,0 0,-1 -2,0 0,-1 -2,0 0,-1 -1,0 0,-1 -2,0 0,-1 -1,0 0,-1 -2,0 0,-1 -2,0 0,-1 -1,0 0,-1 -2,0 0,-1 -2,0 0,-1 -1,0 0,-1 -2,0 0,-1 -2,0 0,-1 -2,0 0,-1 -2,0 0,-1 -2,0 0,-1 -2,0 0,-1 -1,0 0,-1 -2,0 0,-1 -2,0 0,-1 -2,0 0,-1 -2,0 0,-1 -3,0 0,-1 -2,0 0,-1 -2,0 0,-1 -2,0 0,-1 -2,0 0,-1 -2,0 0,-1 -3,0 0,-1 -2,0 0,-1 -2,0 0,-1 -3,0 0,-1 -2,0 0,-1 -3,0 0,-1 -3,0 0,-1 -2,0 0,-1 -3,0 0,-1 -2,0 0,-1 -3,0 0,-1 -3,0 0,-1 -3,0 0,-1 -3,0 0,-1 -3,0 0,-1 -4,0 0,-1 -3,0 0,-1 -3,0 0,-1 -4,0 0,-1 -4,0 0,-1 -3,0 0,-1 -4,0 0,-1 -5,0 0,-1 -4,0 0,-1 -5,0 0,-1 -4,0 0,-1 -5,0 0,-1 -6,0 0,-1 -5,0 0,-1 -7,0 0,-1 -6,0 0,-1 -7,0 0,-1 -8,0 0,-1 -9,0 0,-1 -10,0 0,-1 -10,0 0,-1 -10,0 0,-1 -9,0 0,-1 -14,0 0,-1 -15,0 0,-1 -15,0 0,-1 -16,0 0,-1 -16,0 0,-1 -17,0 0,-1 -17,0 0,-1 -18,0 0,-1 -19,0 0,-1 -19,0 0,-1 -20,0 0,-1 -21,0 0,-1 -22,0 0,-1 -22,0 0,-1 -24,0 0,-1 -25,0 0,-1 -26,0 0,-1 -27,0 0,-1 -28,0 0,-1 -31,0 0,-1 -32,0 0,-1 -34,0 0,-1 -36,0 0,-1 -39,0 0,-1 -42,0 0,-1 -46,0 0,-1 -51,0 0,-1 -57,0 0,-1 -67,0 0,-1 -84,0 0,-1"
               inkscape:connector-curvature="0" /></g></g></g><g
         id="g36"><g
           clip-path="url(#clipPath42)"
           id="g38"><path
             id="path44"
             style="fill:#100f0d;fill-opacity:1;fill-rule:nonzero;stroke:none"
             d="m 1870,398.809 -190,0 0,110 c -72.03,-82.559 -133.09,-124.258 -199.65,-124.258 -58.4,0 -98.95,27.551 -119.26,77.32 -12.34,30.27 -21.09,77.52 -21.09,146.938 l 0,800.001 190,0 0,-750.001 c 0,-42.418 0,-60 0,-70 4.43,-28.071 16.35,-38.321 40.51,-38.321 36.37,0 69.28,31.602 109.49,88.321 l 0,770.001 190,0 0,-1010.001"
             inkscape:connector-curvature="0" /><path
             id="path46"
             style="fill:#100f0d;fill-opacity:1;fill-rule:nonzero;stroke:none"
             d="m 1010,698.809 c 10,-100 -21.016,-149.618 -80.016,-149.618 -59,0 -89.984,49.618 -79.984,149.618 l 0,400.001 c -10,100 21,146.87 80,146.87 59,0 90.1,-46.87 80.1,-146.87 z m 190,380.001 c 0,107.93 -21.68,188.98 -60,240 -50.62,69.08 -130,97.36 -210,97.36 -90.551,0 -159.457,-28.28 -210,-97.36 -38.93,-51.02 -59.812,-132.95 -59.812,-240.88 L 660,718.809 C 660,611.48 678.574,537.32 717.504,486.801 768.047,417.93 850,381.441 930,381.441 c 80,0 163.39,36.489 214,105.36 38.32,50.519 56,124.679 56,232.008 l 0,360.001"
             inkscape:connector-curvature="0" /><path
             id="path48"
             style="fill:#100f0d;fill-opacity:1;fill-rule:nonzero;stroke:none"
             d="m 450,948.809 0,-550 -200,0 0,550 c 0,0 -207.2461,674.311 -250,800.001 l 210,0 140.348,-526.76 139.652,526.76 210,0 -250,-800.001"
             inkscape:connector-curvature="0" /><path
             id="path50"
             style="fill:#ffffff;fill-opacity:1;fill-rule:nonzero;stroke:none"
             d="m 4400,1129.22 c 0,93.46 25.63,118.95 86.09,118.95 60.02,0 83.91,-27.77 83.91,-120.2 l 0,-109.16 -170,-0.19 z m 360.35,-260.411 -0.04,204.431 c 0,106.8 -21.03,184.93 -58.88,235.47 -50.75,68.38 -122.84,104.58 -213.66,104.58 -92.42,0 -164.51,-36.2 -216.87,-104.58 -38.46,-50.54 -60.9,-133.1 -60.9,-239.9 l 0,-350.001 c 0,-106.188 24.67,-180.528 63.13,-230.528 52.34,-68.281 124.43,-102.359 219.14,-102.359 94.59,0 168.88,35.758 218.96,108.316 22.01,32.032 36.23,68.344 42.34,108.473 1.63,18.129 6.43,59.418 6.43,117.758 l 0,28.34 -189.99,0 c 0,-72.637 0.32,-115.821 -1.36,-125.688 -10.33,-48.391 -36.31,-72.633 -80.88,-72.633 -62.14,0 -88.39,46.461 -87.77,138.742 l 0,179.579 360.35,0"
             inkscape:connector-curvature="0" /><path
             id="path52"
             style="fill:#ffffff;fill-opacity:1;fill-rule:nonzero;stroke:none"
             d="m 3900,688.809 c 0,-100 -23.57,-138.321 -75.78,-138.321 -29.81,0 -64.15,15.34 -94.43,45.614 l 0.21,606.458 c 30.27,29.88 64.41,45.61 94.22,45.61 52.21,0 75.78,-29.36 75.78,-129.36 z m 21.07,726.041 c -66.6,0 -132.8,-40.96 -191.28,-112.92 l 0.21,436.88 -180,0 0,-1340.001 180,0 0.25,100.679 c 60.49,-74.84 126.45,-113.566 190.82,-113.566 72.09,0 124.77,38.59 148.93,112.887 12.09,42.363 20,107.582 20,200 l 0,400.001 c 0,94.65 -12.13,159.36 -24.22,199.55 -24.16,74.85 -72.62,116.49 -144.71,116.49"
             inkscape:connector-curvature="0" /><path
             id="path54"
             style="fill:#ffffff;fill-opacity:1;fill-rule:nonzero;stroke:none"
             d="m 3400,398.809 -190,0 0,110 c -72.03,-82.559 -133.09,-124.258 -199.65,-124.258 -58.4,0 -98.95,27.551 -119.26,77.32 -12.34,30.27 -21.09,77.52 -21.09,146.938 l 0,790.001 190,0 0,-740.001 c 0,-42.418 0,-60 0,-70 4.43,-28.071 16.35,-38.321 40.51,-38.321 36.37,0 69.28,31.602 109.49,88.321 l 0,760.001 190,0 0,-1000.001"
             inkscape:connector-curvature="0" /><path
             id="path56"
             style="fill:#ffffff;fill-opacity:1;fill-rule:nonzero;stroke:none"
             d="m 2680,398.809 -200,0 0,1150.001 -210,0 0,189.79 630,0.21 0,-190 -220,0 0,-1150.001"
             inkscape:connector-curvature="0" /></g></g></g></g></svg>