<?xml version="1.0" encoding="UTF-8" standalone="no"?>
<svg
   xmlns:dc="http://purl.org/dc/elements/1.1/"
   xmlns:cc="http://creativecommons.org/ns#"
   xmlns:rdf="http://www.w3.org/1999/02/22-rdf-syntax-ns#"
   xmlns:svg="http://www.w3.org/2000/svg"
   xmlns="http://www.w3.org/2000/svg"
   xmlns:sodipodi="http://sodipodi.sourceforge.net/DTD/sodipodi-0.dtd"
   xmlns:inkscape="http://www.inkscape.org/namespaces/inkscape"
   width="80"
   height="80"
   viewBox="0 0 8.192 8.191792"
   preserveAspectRatio="xMidYMid"
   version="1.1"
   id="svg8"
   sodipodi:docname="freebsd.svg"
   inkscape:version="0.92.1 r">
  <metadata
     id="metadata14">
    <rdf:RDF>
      <cc:Work
         rdf:about="">
        <dc:format>image/svg+xml</dc:format>
        <dc:type
           rdf:resource="http://purl.org/dc/dcmitype/StillImage" />
        <dc:title></dc:title>
      </cc:Work>
    </rdf:RDF>
  </metadata>
  <defs
     id="defs12" />
  <sodipodi:namedview
     pagecolor="#ffffff"
     bordercolor="#666666"
     borderopacity="1"
     objecttolerance="10"
     gridtolerance="10"
     guidetolerance="10"
     inkscape:pageopacity="0"
     inkscape:pageshadow="2"
     inkscape:window-width="1920"
     inkscape:window-height="1001"
     id="namedview10"
     showgrid="false"
     inkscape:zoom="3.0686713"
     inkscape:cx="17.490948"
     inkscape:cy="25.928949"
     inkscape:window-x="0"
     inkscape:window-y="55"
     inkscape:window-maximized="1"
     inkscape:current-layer="svg8" />
  <circle
     style="fill:#1d62f0;fill-opacity:0;stroke-width:0.23720804;stroke-miterlimit:4;stroke-dasharray:none"
     id="path4567"
     cx="4.0960002"
     cy="4.0958958"
     r="4.0960002" />
  <g
     style="fill:#b5010f"
     transform="matrix(0.02129822,0,0,0.02129822,1.3649395,1.8161455)"
     id="g4501">
    <path
       inkscape:connector-curvature="0"
       id="path4497"
       d="m 252.723,5.11 c 13.508,13.5 -23.939,72.848 -30.27,79.182 -6.33,6.321 -22.409,0.505 -35.91,-13 -13.508,-13.5 -19.327,-29.583 -12.996,-35.914 6.327,-6.333 65.671,-43.777 79.176,-30.269 M 63.305,19.394 C 42.683,7.694 13.339,-5.322 4.005,4.014 -5.453,13.468 8.039,43.472 19.863,64.131 A 126.812,126.812 0 0 1 63.305,19.394" />
    <path
       inkscape:connector-curvature="0"
       id="path4499"
       d="m 232.123,79.636 c 1.899,6.44 1.558,11.76 -1.522,14.834 -7.193,7.196 -26.624,-0.464 -44.14,-17.134 a 89.383,89.383 0 0 1 -3.627,-3.428 C 176.5,67.572 171.572,60.828 168.42,54.617 c -6.135,-11.006 -7.67,-20.726 -3.033,-25.364 2.527,-2.524 6.57,-3.212 11.502,-2.325 3.216,-2.034 7.013,-4.3 11.176,-6.621 C 171.136,11.477 151.889,6.49 131.472,6.49 63.753,6.49 8.854,61.38 8.854,129.105 c 0,67.713 54.9,122.61 122.618,122.61 67.72,0 122.616,-54.897 122.616,-122.61 0,-21.87 -5.74,-42.377 -15.767,-60.156 -2.167,3.955 -4.274,7.578 -6.198,10.687" />
  </g>
</svg>
