<?xml version="1.0" encoding="UTF-8" standalone="no"?>
<!-- Created with Inkscape (http://www.inkscape.org/) -->

<svg
   xmlns:dc="http://purl.org/dc/elements/1.1/"
   xmlns:cc="http://creativecommons.org/ns#"
   xmlns:rdf="http://www.w3.org/1999/02/22-rdf-syntax-ns#"
   xmlns:svg="http://www.w3.org/2000/svg"
   xmlns="http://www.w3.org/2000/svg"
   xmlns:sodipodi="http://sodipodi.sourceforge.net/DTD/sodipodi-0.dtd"
   xmlns:inkscape="http://www.inkscape.org/namespaces/inkscape"
   version="1.1"
   id="svg2"
   width="80"
   height="80"
   viewBox="0 0 80 80"
   sodipodi:docname="github.svg"
   inkscape:version="0.91 r13725">
  <metadata
     id="metadata8">
    <rdf:RDF>
      <cc:Work
         rdf:about="">
        <dc:format>image/svg+xml</dc:format>
        <dc:type
           rdf:resource="http://purl.org/dc/dcmitype/StillImage" />
        <dc:title />
      </cc:Work>
    </rdf:RDF>
  </metadata>
  <defs
     id="defs6" />
  <sodipodi:namedview
     pagecolor="#ffffff"
     bordercolor="#666666"
     borderopacity="1"
     objecttolerance="10"
     gridtolerance="10"
     guidetolerance="10"
     inkscape:pageopacity="0"
     inkscape:pageshadow="2"
     inkscape:window-width="1440"
     inkscape:window-height="828"
     id="namedview4"
     showgrid="false"
     inkscape:zoom="3.6875"
     inkscape:cx="-57.186491"
     inkscape:cy="45.893501"
     inkscape:window-x="-67"
     inkscape:window-y="0"
     inkscape:window-maximized="0"
     inkscape:current-layer="svg2" />
  <path
     style="fill:#000000;fill-opacity:1;stroke-width:0.33064559"
     d="m 39.779328,71.95169 c -0.818348,-0.05743 -2.82702,-0.334534 -4.463716,-0.615784 l -2.97581,-0.511367 0.108147,-4.243466 0.108148,-4.243466 -1.43073,0.276509 c -3.277586,0.633441 -6.244111,0.149654 -8.894679,-1.450558 -1.531203,-0.924426 -1.957223,-1.442405 -3.450878,-4.195754 -1.385514,-2.554009 -2.054311,-3.408163 -3.578075,-4.56975 -2.572466,-1.96103 -2.503278,-2.559432 0.275143,-2.37972 2.132314,0.137923 2.942412,0.775364 6.755437,5.315631 2.098032,2.498179 5.235002,3.32849 8.8289,2.336877 1.235375,-0.340859 1.400989,-0.513714 1.724985,-1.800424 0.197124,-0.78285 0.735293,-1.978733 1.195925,-2.657515 1.019946,-1.502973 1.021831,-1.534007 0.09357,-1.541169 -1.610283,-0.01243 -5.423757,-1.024985 -7.474473,-1.984631 -5.536379,-2.590786 -8.238792,-6.809579 -9.030811,-14.09819 -0.538757,-4.957968 0.513027,-9.506526 2.833061,-12.251909 0.817363,-0.967215 0.866536,-1.174192 0.54987,-2.31452 C 20.448317,19.20388 20.523976,15.688838 21.110667,13.71324 21.607951,12.038695 21.647857,12 22.877455,12 c 1.716874,0 4.715214,1.07884 7.352071,2.64537 l 2.194479,1.303716 2.437744,-0.535603 c 3.307362,-0.72667 11.156986,-0.726637 14.464493,5.9e-5 l 2.438029,0.535663 2.191009,-1.268274 C 56.769058,13.05217 59.632505,12 61.251356,12 c 1.141646,0 1.31918,0.114526 1.665792,1.074598 0.596597,1.652494 0.809979,5.950178 0.380177,7.65708 -0.368035,1.461599 -0.344136,1.556703 0.786748,3.130811 1.987391,2.766303 2.589778,4.933016 2.585255,9.29883 -0.01075,10.387445 -4.567975,16.204612 -14.160139,18.075074 -1.636696,0.319152 -3.014334,0.59988 -3.061421,0.623842 -0.04708,0.02397 0.392926,0.971424 0.977801,2.105472 1.046014,2.02818 1.065072,2.146667 1.165146,7.243701 0.05596,2.849987 0.141132,6.178282 0.189281,7.396205 l 0.08754,2.214413 -2.98563,0.49745 c -3.295125,0.54902 -6.818554,0.794511 -9.102578,0.634214 z M 28.497076,59.975518 c 0.572682,-0.362728 0.194681,-1.023841 -0.585394,-1.023841 -0.821674,0 -1.086905,0.356671 -0.653531,0.878853 0.428493,0.516306 0.617722,0.538453 1.238925,0.144988 z m 2.823746,-0.232602 c 0.806137,-0.309346 0.62616,-1.121884 -0.248497,-1.121884 -0.995147,0 -1.301352,0.320991 -0.838365,0.878852 0.425048,0.512151 0.400088,0.506573 1.086862,0.243032 z m -5.759253,-0.636291 c 0,-0.278493 -0.233188,-0.59583 -0.518194,-0.705198 -0.621859,-0.238627 -1.299986,0.3465 -0.98752,0.852087 0.336832,0.545003 1.505714,0.430973 1.505714,-0.146889 z m -2.801537,-1.161367 c 0.266709,-0.431548 -0.431112,-1.3081 -1.041375,-1.3081 -0.560957,0 -0.594626,0.720536 -0.05871,1.256453 0.487891,0.487891 0.820805,0.503521 1.100081,0.05165 z m -1.973217,-2.331765 c 0.291812,-0.472162 -0.67373,-1.436487 -1.146034,-1.14459 -0.255526,0.157927 -0.261488,0.414693 -0.0201,0.86574 0.383625,0.716806 0.829557,0.82344 1.166131,0.27885 z m -1.507512,-2.242307 c 0,-0.159586 -0.20994,-0.464391 -0.466535,-0.677344 -0.518148,-0.430024 -1.048106,0.05861 -0.690725,0.63686 0.251803,0.407428 1.15726,0.439108 1.15726,0.04048 z m -1.653228,-1.674197 c 0,-0.446494 -0.602747,-0.756018 -0.997333,-0.51215 -0.184821,0.114225 -0.250434,0.346192 -0.145808,0.515483 0.248205,0.401605 1.143141,0.398997 1.143141,-0.0033 z"
     id="path4487"
     inkscape:connector-curvature="0" />
</svg>
