<?xml version="1.0" encoding="UTF-8" standalone="no"?>
<!-- Created with Inkscape (http://www.inkscape.org/) -->

<svg
   xmlns:dc="http://purl.org/dc/elements/1.1/"
   xmlns:cc="http://creativecommons.org/ns#"
   xmlns:rdf="http://www.w3.org/1999/02/22-rdf-syntax-ns#"
   xmlns:svg="http://www.w3.org/2000/svg"
   xmlns="http://www.w3.org/2000/svg"
   xmlns:sodipodi="http://sodipodi.sourceforge.net/DTD/sodipodi-0.dtd"
   xmlns:inkscape="http://www.inkscape.org/namespaces/inkscape"
   version="1.1"
   id="svg2"
   width="80"
   height="80"
   viewBox="0 0 80 80"
   sodipodi:docname="linux.svg"
   inkscape:version="0.92.1 r">
  <metadata
     id="metadata8">
    <rdf:RDF>
      <cc:Work
         rdf:about="">
        <dc:format>image/svg+xml</dc:format>
        <dc:type
           rdf:resource="http://purl.org/dc/dcmitype/StillImage" />
        <dc:title></dc:title>
      </cc:Work>
    </rdf:RDF>
  </metadata>
  <defs
     id="defs6" />
  <sodipodi:namedview
     pagecolor="#ffffff"
     bordercolor="#666666"
     borderopacity="1"
     objecttolerance="10"
     gridtolerance="10"
     guidetolerance="10"
     inkscape:pageopacity="0"
     inkscape:pageshadow="2"
     inkscape:window-width="1920"
     inkscape:window-height="1001"
     id="namedview4"
     showgrid="false"
     inkscape:zoom="3.6875"
     inkscape:cx="29.11702"
     inkscape:cy="44.696025"
     inkscape:window-x="0"
     inkscape:window-y="55"
     inkscape:window-maximized="1"
     inkscape:current-layer="svg2" />
  <circle
     style="fill:#1d62f0;fill-opacity:0;stroke-width:2.31648469;stroke-miterlimit:4;stroke-dasharray:none"
     id="path4567"
     cx="40"
     cy="40"
     r="40" />
  <path
     sodipodi:nodetypes="cssssccccccsssscscsccsssssssscsccssscscccssscsssscssssscccscccscccsssssccccsscssccsssscscssscscsssccsssssssscssssscscscsscsssccssscssccsssscsccsscccscscscscccssccscscc"
     inkscape:connector-curvature="0"
     id="path4523"
     d="m 50.71812,74.340695 c -1.553004,-0.436262 -2.786529,-1.520999 -3.400429,-2.990264 -0.269392,-0.644759 -0.283155,-0.651704 -1.290847,-0.651704 -0.5602,0 -1.927804,-0.127643 -3.039125,-0.28365 -2.289022,-0.321331 -3.392089,-0.270054 -6.826207,0.317325 -1.840639,0.314826 -2.357793,0.464754 -2.43427,0.705714 -0.164532,0.518385 -1.639976,1.687668 -2.49883,1.980309 -1.047845,0.357037 -3.360319,0.359834 -4.719884,0.0057 -0.57438,-0.149605 -1.761364,-0.596581 -2.637754,-0.993283 -1.590691,-0.720033 -3.00998,-1.055801 -6.821801,-1.613877 -0.936114,-0.137053 -2.0062,-0.398246 -2.377987,-0.580434 -1.464629,-0.717721 -1.830736,-2.224853 -1.108502,-4.563206 0.335965,-1.087722 0.348335,-1.309546 0.152816,-2.74031 -0.42612,-3.118158 0.02229,-4.210735 2.107276,-5.135001 2.148898,-0.952579 2.373754,-1.111319 3.468846,-2.448988 l 1.090752,-1.332353 0.08639,-2.282181 c 0.06742,-1.779137 0.190439,-2.631959 0.558324,-3.869049 0.996932,-3.352458 3.663229,-8.01216 7.151572,-12.498329 2.219062,-2.853803 3.180064,-5.456894 3.229574,-8.748075 0.01533,-1.018241 -0.0021,-3.358872 -0.03848,-5.201403 -0.07621,-3.851682 0.126951,-5.175324 1.108684,-7.222864 1.124922,-2.346165 3.230581,-3.852186 6.17313,-4.4151892 5.91003,-1.1307762 10.109567,1.2004552 11.554312,6.4139892 0.556309,2.007533 0.728044,3.704832 0.798101,7.888267 0.07246,4.322635 0.183557,4.907909 1.344741,7.080206 0.663484,1.241235 1.698928,2.678768 3.776246,5.242682 2.462278,3.039042 4.760829,7.151429 5.568116,9.962007 0.536618,1.868263 0.674074,5.639689 0.262875,7.212841 l -0.295321,1.129844 0.496917,0.406602 c 0.273304,0.223633 0.543822,0.409458 0.601145,0.412946 0.249638,0.01518 1.023235,1.791307 1.308287,3.003758 0.366481,1.558791 0.455318,1.747671 1.360915,2.893329 0.975033,1.233519 1.370241,2.088733 1.368901,2.962244 -0.0021,1.308603 -0.603632,1.938028 -2.99625,3.134688 -2.792102,1.396461 -3.813708,2.087337 -5.221774,3.531308 -0.764594,0.784098 -1.812385,1.707269 -2.328403,2.051493 -1.777389,1.185639 -3.967295,1.674479 -5.532112,1.234898 z m 4.117335,-1.390726 c 1.033846,-0.510952 1.726389,-1.051394 3.160845,-2.466611 1.732553,-1.709311 1.989833,-1.891128 4.527614,-3.199551 2.701068,-1.392615 3.568636,-2.073866 3.568636,-2.802254 0,-0.531755 -0.609773,-1.718073 -1.297321,-2.523927 -0.818863,-0.959778 -1.098244,-1.560123 -1.533347,-3.294917 -0.475919,-1.897574 -0.861662,-2.530888 -1.801345,-2.957452 -1.177315,-0.534439 -1.970796,-0.457029 -2.826938,0.275798 -2.121682,1.81608 -4.632784,2.025846 -5.734233,0.479007 -0.280764,-0.3943 -0.811616,-1.788389 -0.978002,-2.568345 -0.06002,-0.281325 -1.006557,0.627832 -1.345641,1.292491 -0.491065,0.962558 -0.695148,2.021066 -0.968581,5.023555 -0.179023,1.965783 -0.402978,3.210387 -0.872338,4.847885 -1.257255,4.386259 -1.235882,5.606711 0.125269,7.153063 1.021842,1.16087 1.845817,1.511076 3.404352,1.446914 1.020684,-0.04202 1.487492,-0.170142 2.57103,-0.705656 z M 30.720573,72.741256 c 1.749049,-0.526388 2.741639,-1.81311 2.749142,-3.563786 0.0064,-1.49111 -0.429732,-2.289287 -3.181479,-5.822702 -0.842186,-1.081431 -1.826373,-2.587981 -2.187077,-3.347889 -1.443277,-3.040656 -2.994224,-5.196909 -4.17856,-5.809348 -0.62911,-0.32533 -1.794678,-0.317635 -2.440059,0.0161 -0.28205,0.145854 -1.002665,0.908682 -1.601377,1.695178 -0.962921,1.264947 -1.223235,1.490092 -2.255441,1.950737 -0.64179,0.286412 -1.509197,0.675509 -1.927578,0.864661 -0.600942,0.271687 -0.835562,0.513156 -1.117174,1.149789 -0.323681,0.731744 -0.338859,0.936774 -0.164981,2.228802 0.242413,1.801288 0.243228,2.971219 0.0021,3.603441 -0.36407,0.956177 -0.502694,2.117632 -0.328184,2.749656 0.295406,1.069884 1.002483,1.344906 4.648798,1.808171 2.524286,0.32071 4.073732,0.740636 5.631624,1.526264 2.125627,1.071937 4.677792,1.454136 6.349849,0.95092 z m 12.538703,-5.356675 c 1.501737,-0.490768 2.580902,-0.98573 3.674612,-1.68537 0.935042,-0.598136 0.955879,-0.630263 1.34905,-2.079732 0.225756,-0.832243 0.466036,-2.417865 0.552772,-3.647642 0.17137,-2.429907 0.507582,-4.106956 1.027769,-5.12661 0.322578,-0.632295 1.656814,-1.954691 1.972189,-1.954691 0.07578,0 0.219304,-0.302705 0.318923,-0.672679 0.381734,-1.417656 1.604422,-1.898222 3.458352,-1.359272 1.387262,0.403292 2.588513,1.031057 3.433185,1.794168 0.590234,0.533242 0.698942,0.739967 0.698942,1.329142 0,0.569207 0.05681,0.686909 0.308558,0.639169 0.390299,-0.07401 0.498021,-0.883966 0.210043,-1.579212 -0.27727,-0.669391 -1.467845,-1.709976 -2.733439,-2.38908 l -1.00362,-0.538529 0.02755,-1.82967 c 0.02069,-1.375106 -0.06249,-2.150698 -0.334733,-3.121844 -0.603771,-2.153636 -1.919314,-4.468019 -3.577844,-6.294392 -1.171731,-1.290312 -1.203158,-0.839389 -0.03934,0.563918 1.110667,1.339172 2.406959,3.863479 2.746141,5.34762 0.441276,1.930885 0.130596,5.096761 -0.477281,4.863499 -0.147478,-0.0566 -0.453431,-0.102889 -0.679905,-0.102889 -0.354434,0 -0.438897,-0.128879 -0.606676,-0.925673 -0.387555,-1.840595 -1.285499,-4.195752 -2.679942,-7.02906 -0.781991,-1.588877 -1.782555,-3.761645 -2.223489,-4.828373 -0.850932,-2.058635 -2.512581,-6.857273 -2.512581,-7.256025 0,-0.361526 -0.246025,-0.285929 -0.718621,0.220815 -0.235093,0.252084 -1.181217,0.838194 -2.102475,1.302462 -0.921268,0.46427 -2.080416,1.056035 -2.575886,1.315031 -1.67555,0.875854 -3.508333,0.783211 -4.829504,-0.244121 -1.638367,-1.273979 -2.330889,-1.773796 -2.457691,-1.773796 -0.07621,0 -0.191124,0.456225 -0.255404,1.013833 -0.280453,2.433094 -1.368783,5.560184 -3.75319,10.784102 -1.894447,4.150483 -2.293224,5.491827 -2.940041,9.889267 -0.07717,0.524358 -1.002677,-1.772546 -1.151302,-2.857129 -0.308825,-2.253746 0.311431,-4.7562 1.979522,-7.986472 0.450698,-0.872777 0.817115,-1.705884 0.814264,-1.851346 -0.0075,-0.407148 -0.790812,0.914012 -2.032118,3.429581 -2.378898,4.820944 -2.426542,8.32692 -0.147435,10.84962 0.371927,0.411675 1.392664,1.225235 2.268314,1.807913 2.173057,1.446008 3.638211,2.762612 4.484277,4.029603 1.359672,2.036118 1.146575,3.443689 -0.598519,3.953525 l -0.612892,0.179058 0.92279,1.28573 c 0.80347,1.119468 1.082413,1.363985 2.157033,1.890877 1.980453,0.971019 2.87052,1.147073 5.37772,1.063699 1.545384,-0.05138 2.520117,-0.176604 3.261901,-0.41902 z M 55.579908,56.023523 c 0.867954,-0.260045 2.401976,-1.668557 2.401976,-2.205451 0,-1.345359 -3.447902,-3.040619 -4.758075,-2.33944 -1.127431,0.603382 -0.717721,3.625646 0.60048,4.42948 0.641244,0.391033 0.800695,0.401514 1.755619,0.115411 z M 40.491109,31.984093 c 0.513992,-0.229197 1.153284,-0.572483 1.42064,-0.762862 0.267366,-0.190379 0.888758,-0.499135 1.380884,-0.686126 1.73237,-0.658248 2.699579,-1.698904 2.699579,-2.904561 0,-0.810947 -0.668319,-1.411365 -2.204935,-1.980884 -0.678298,-0.251404 -1.868025,-0.772253 -2.643831,-1.157442 -2.283534,-1.133789 -3.737123,-1.106157 -5.238067,0.09958 -0.416216,0.33436 -1.330324,1.045616 -2.031335,1.580566 -0.808669,0.617098 -1.316861,1.141118 -1.390263,1.433542 -0.153898,0.613177 0.287957,1.50919 1.023492,2.075519 0.320885,0.247065 0.940476,0.729002 1.376865,1.07097 2.559357,2.005603 3.438394,2.198704 5.606971,1.231702 z m -4.4609,-1.891621 c -1.221219,-0.587101 -2.989551,-2.053115 -2.756999,-2.28566 0.12305,-0.123053 0.475115,0.08448 1.106873,0.65249 1.433319,1.288673 2.12746,1.589283 3.677795,1.592717 1.465433,0.0032 2.245451,-0.285455 4.776093,-1.767734 1.250953,-0.732723 1.925928,-0.961415 1.922583,-0.651405 -0.0011,0.134379 -1.086389,0.749826 -3.594736,2.039167 -1.224638,0.629484 -1.564162,0.72335 -2.821096,0.77993 -1.228111,0.05529 -1.552812,0.0047 -2.310513,-0.359505 z m -1.729562,-4.748027 c 0.158078,-0.121811 0.125579,-0.300172 -0.131572,-0.721901 -0.393557,-0.645435 -0.450548,-1.92304 -0.11544,-2.587782 0.514185,-1.019978 1.586575,-0.340305 1.809599,1.146908 l 0.115386,0.769454 0.59108,-0.281867 c 0.734142,-0.35009 0.776374,-0.461012 0.600105,-1.576108 -0.192164,-1.215607 -0.770135,-2.291679 -1.455271,-2.709426 -0.678277,-0.413569 -1.035658,-0.431647 -1.70373,-0.08618 -1.54682,0.799893 -1.929069,4.170495 -0.675576,5.957105 0.325429,0.463841 0.463368,0.47667 0.965419,0.08979 z m 11.317216,-0.65351 c 0.501772,-1.166393 0.504827,-2.968408 0.0064,-4.066724 -0.649518,-1.432697 -1.555566,-2.115823 -2.806283,-2.115823 -1.732499,0 -3.011931,1.47067 -3.282556,3.773186 -0.124679,1.060869 -0.15929,1.017204 1.122661,1.416553 0.350758,0.109268 0.396708,0.06227 0.396708,-0.405775 1.1e-5,-1.108707 0.781101,-2.315503 1.498715,-2.315503 0.208628,0 0.566695,0.199445 0.795699,0.443213 0.536265,0.570826 0.702243,2.25408 0.301473,3.057436 -0.265083,0.531363 -0.264472,0.532643 0.376578,0.798841 1.020534,0.423783 1.181464,0.36454 1.590113,-0.585404 z"
     style="fill:#000000;stroke-width:0.17631872" />
</svg>
