<?xml version="1.0" encoding="UTF-8" standalone="no"?>
<!-- Created with Inkscape (http://www.inkscape.org/) -->

<svg
   xmlns:dc="http://purl.org/dc/elements/1.1/"
   xmlns:cc="http://creativecommons.org/ns#"
   xmlns:rdf="http://www.w3.org/1999/02/22-rdf-syntax-ns#"
   xmlns:svg="http://www.w3.org/2000/svg"
   xmlns="http://www.w3.org/2000/svg"
   xmlns:sodipodi="http://sodipodi.sourceforge.net/DTD/sodipodi-0.dtd"
   xmlns:inkscape="http://www.inkscape.org/namespaces/inkscape"
   version="1.0"
   width="80"
   height="80"
   id="svg2811"
   sodipodi:docname="osx.svg"
   inkscape:version="0.92.1 r">
  <metadata
     id="metadata17">
    <rdf:RDF>
      <cc:Work
         rdf:about="">
        <dc:format>image/svg+xml</dc:format>
        <dc:type
           rdf:resource="http://purl.org/dc/dcmitype/StillImage" />
        <dc:title />
      </cc:Work>
    </rdf:RDF>
  </metadata>
  <sodipodi:namedview
     pagecolor="#ffffff"
     bordercolor="#666666"
     borderopacity="1"
     objecttolerance="10"
     gridtolerance="10"
     guidetolerance="10"
     inkscape:pageopacity="0"
     inkscape:pageshadow="2"
     inkscape:window-width="1920"
     inkscape:window-height="1001"
     id="namedview15"
     showgrid="false"
     inkscape:zoom="2.9364168"
     inkscape:cx="13.425521"
     inkscape:cy="82.868392"
     inkscape:window-x="0"
     inkscape:window-y="55"
     inkscape:window-maximized="1"
     inkscape:current-layer="svg2811" />
  <defs
     id="defs2813">
    <clipPath
       id="clp12">
      <path
         d="m 45.315,71.927 h 12.92 v 15.867 h -12.92 z"
         id="path184"
         inkscape:connector-curvature="0" />
    </clipPath>
    <clipPath
       id="clp21">
      <path
         d="m 123.91,72.178 h 26.23 v 15.294 h -26.23 z"
         id="path592"
         inkscape:connector-curvature="0" />
    </clipPath>
    <clipPath
       id="clp9">
      <path
         d="m 413.96,49.857 h 31.76 v 8.719 h -31.76 z"
         id="path100"
         inkscape:connector-curvature="0" />
    </clipPath>
  </defs>
  <circle
     style="fill:#1d62f0;fill-opacity:0;stroke-width:2.31648469;stroke-miterlimit:4;stroke-dasharray:none"
     id="path4567"
     cx="40"
     cy="40"
     r="40" />
  <g
     id="g4498"
     transform="matrix(0.0746877,0,0,0.0746877,5.3654975,60.283693)"
     style="fill:#b3b3b3;fill-opacity:1">
    <g
       transform="translate(-984.32956,-2392.219)"
       id="g4509"
       style="fill:#b3b3b3;fill-opacity:1">
      <g
         transform="translate(19.48863,19.49672)"
         id="g4507"
         style="fill:#b3b3b3;fill-opacity:1">
        <g
           transform="matrix(54.85033,0,0,-54.85033,-1411.313,6454.729)"
           style="fill:#b3b3b3;fill-opacity:1;fill-rule:nonzero;stroke:none"
           clip-path="url(#clp12)"
           id="g4503">
          <path
             inkscape:connector-curvature="0"
             d="m 56.105,79.364 c -0.018,2.008 1.64,2.972 1.715,3.019 -0.933,1.365 -2.385,1.552 -2.903,1.574 -1.235,0.125 -2.411,-0.727 -3.037,-0.727 -0.626,0 -1.594,0.709 -2.618,0.689 -1.348,-0.02 -2.589,-0.783 -3.283,-1.989 -1.399,-2.427 -0.357,-6.024 1.005,-7.994 0.667,-0.963 1.461,-2.048 2.505,-2.008 1.006,0.04 1.386,0.65 2.6,0.65 1.214,0 1.556,-0.65 2.619,-0.631 1.081,0.021 1.767,0.984 2.429,1.95 0.764,1.118 1.08,2.2 1.098,2.257 -0.024,0.01 -2.108,0.809 -2.13,3.21"
             style="fill:#b3b3b3;fill-opacity:1;fill-rule:nonzero;stroke:none"
             id="path4501" />
        </g>
        <path
           inkscape:connector-curvature="0"
           d="m 1556.5087,1778.2074 c 30.3865,-36.8044 50.9002,-87.9802 45.2501,-138.9887 -43.7736,1.7571 -96.7556,29.1808 -128.1856,65.9852 -28.1373,32.5275 -52.8196,84.6335 -46.131,134.6035 48.8183,3.7847 98.675,-24.8497 129.0665,-61.6"
           style="fill:#b3b3b3;fill-opacity:1;fill-rule:nonzero;stroke:none"
           id="path4505" />
      </g>
    </g>
  </g>
</svg>
