<?xml version="1.0" encoding="UTF-8" standalone="no"?>
<!-- Created with Inkscape (http://www.inkscape.org/) -->

<svg
   xmlns:dc="http://purl.org/dc/elements/1.1/"
   xmlns:cc="http://creativecommons.org/ns#"
   xmlns:rdf="http://www.w3.org/1999/02/22-rdf-syntax-ns#"
   xmlns:svg="http://www.w3.org/2000/svg"
   xmlns="http://www.w3.org/2000/svg"
   xmlns:sodipodi="http://sodipodi.sourceforge.net/DTD/sodipodi-0.dtd"
   xmlns:inkscape="http://www.inkscape.org/namespaces/inkscape"
   version="1.1"
   id="svg2"
   width="80"
   height="80"
   viewBox="0 0 80 80"
   sodipodi:docname="windows.svg"
   inkscape:version="0.92.1 r">
  <metadata
     id="metadata8">
    <rdf:RDF>
      <cc:Work
         rdf:about="">
        <dc:format>image/svg+xml</dc:format>
        <dc:type
           rdf:resource="http://purl.org/dc/dcmitype/StillImage" />
        <dc:title />
      </cc:Work>
    </rdf:RDF>
  </metadata>
  <defs
     id="defs6">
    <filter
       style="color-interpolation-filters:sRGB"
       inkscape:label="Greyscale"
       id="filter4519">
      <feColorMatrix
         values="0.21 0.72 0.072 0 0 0.21 0.72 0.072 0 0 0.21 0.72 0.072 0 0 0 0 0 1 0 "
         id="feColorMatrix4517" />
    </filter>
  </defs>
  <sodipodi:namedview
     pagecolor="#ffffff"
     bordercolor="#666666"
     borderopacity="1"
     objecttolerance="10"
     gridtolerance="10"
     guidetolerance="10"
     inkscape:pageopacity="0"
     inkscape:pageshadow="2"
     inkscape:window-width="1920"
     inkscape:window-height="1001"
     id="namedview4"
     showgrid="false"
     inkscape:zoom="2.6074563"
     inkscape:cx="-110.62034"
     inkscape:cy="7.1676614"
     inkscape:window-x="0"
     inkscape:window-y="55"
     inkscape:window-maximized="1"
     inkscape:current-layer="svg2"
     fit-margin-top="0"
     fit-margin-left="0"
     fit-margin-right="0"
     fit-margin-bottom="0" />
  <circle
     style="fill:#1d62f0;fill-opacity:0;stroke-width:2.31648469;stroke-miterlimit:4;stroke-dasharray:none"
     id="path4567"
     cx="40"
     cy="40"
     r="40" />
  <path
     style="fill:#5bcaff;fill-opacity:1;stroke-width:0.03016587"
     d="M 51.145738,70.215043 C 42.277737,68.962246 35.020437,67.935565 35.018427,67.93351 c -0.003,-0.0022 -0.01351,-5.3565 -0.0252,-11.898783 l -0.02145,-11.895073 14.987461,0.01785 c 8.243114,0.0099 15.54741,0.02595 16.231815,0.03593 l 1.24434,0.01807 v 14.144251 14.144244 l -0.08295,-0.0038 c -0.0456,-0.0022 -7.338599,-1.028547 -16.206615,-2.281346 z M 19.743087,65.876376 C 13.081707,64.958055 7.6280976,64.206166 7.6239419,64.205506 7.6194188,64.204847 7.616465,59.616082 7.616465,54.008244 V 43.812182 l 0.4449599,3e-4 c 0.4961105,3.37e-4 16.5657601,0.106275 21.0658801,0.13887 l 2.883405,0.02085 0.02009,4.93251 c 0.01051,2.71288 0.0201,8.018485 0.0201,11.790238 v 6.857726 l -0.0981,-0.003 c -0.05385,-0.0015 -5.54826,-0.754687 -12.20964,-1.673009 z M 7.6163976,34.168871 c 0,-3.965176 -0.00905,-8.553461 -0.020095,-10.19619 l -0.019948,-2.986766 0.1180505,-0.01867 c 0.2071347,-0.03278 24.2900999,-3.308853 24.3239259,-3.308853 0.02309,0 0.0324,3.395411 0.0324,11.776732 V 41.21186 l -0.369526,0.01658 c -0.203235,0.0091 -4.794856,0.03787 -10.203601,0.06398 -5.40873,0.0261 -10.740165,0.05602 -11.8476295,0.06667 L 7.6163894,41.37836 Z M 35.007012,29.206699 V 17.216301 l 0.324285,-0.04905 c 1.3419,-0.202933 31.987426,-4.667248 32.038545,-4.667248 h 0.06555 V 26.705416 40.91083 l -0.24888,0.01575 c -0.1368,0.0087 -6.866505,0.06458 -14.954715,0.12417 -8.088225,0.05962 -15.27261,0.116955 -15.965295,0.127366 l -1.259416,0.01898 z"
     id="path4487"
     inkscape:connector-curvature="0" />
</svg>
